M48
; DRILL file {KiCad 9.0.6} date 2026-03-28T15:28:23+0530
; FORMAT={-:-/ absolute / metric / decimal}
; #@! TF.CreationDate,2026-03-28T15:28:23+05:30
; #@! TF.GenerationSoftware,Kicad,Pcbnew,9.0.6
; #@! TF.FileFunction,Plated,1,2,PTH
FMAT,2
METRIC
; #@! TA.AperFunction,Plated,PTH,ViaDrill
T1C0.100
; #@! TA.AperFunction,Plated,PTH,ViaDrill
T2C0.300
; #@! TA.AperFunction,Plated,PTH,ViaDrill
T3C0.400
; #@! TA.AperFunction,Plated,PTH,ViaDrill
T4C0.500
; #@! TA.AperFunction,Plated,PTH,ComponentDrill
T5C0.600
; #@! TA.AperFunction,Plated,PTH,ComponentDrill
T6C0.700
; #@! TA.AperFunction,Plated,PTH,ComponentDrill
T7C0.800
; #@! TA.AperFunction,Plated,PTH,ComponentDrill
T8C1.000
; #@! TA.AperFunction,Plated,PTH,ComponentDrill
T9C1.100
; #@! TA.AperFunction,Plated,PTH,ComponentDrill
T10C1.200
; #@! TA.AperFunction,Plated,PTH,ComponentDrill
T11C1.300
%
G90
G05
T1
X86.312Y-122.629
X86.652Y-104.089
X88.779Y-123.332
X89.155Y-104.345
X91.467Y-105.364
X91.61Y-122.687
X127.5Y-123.309
X127.5Y-123.916
X169.57Y-107.99
X197.334Y-119.162
X197.5Y-120.0
X202.5Y-120.0
X205.194Y-118.122
T2
X61.17Y-111.979
X62.693Y-113.422
X192.242Y-105.161
T3
X100.741Y-103.77
X133.314Y-101.247
X147.318Y-95.692
X200.531Y-73.542
X200.907Y-76.924
X201.024Y-78.185
X201.024Y-79.385
T4
X53.342Y-125.34
X53.381Y-120.403
X53.381Y-121.403
X53.381Y-122.403
X53.381Y-123.403
X53.381Y-124.403
X54.342Y-125.34
X54.381Y-120.403
X54.381Y-121.403
X54.381Y-122.403
X54.381Y-123.403
X54.381Y-124.403
X55.342Y-125.34
X55.381Y-120.403
X55.381Y-121.403
X55.381Y-122.403
X55.381Y-123.403
X55.381Y-124.403
X56.349Y-125.331
X56.388Y-120.393
X56.388Y-121.393
X56.388Y-122.393
X56.388Y-123.393
X56.388Y-124.393
X57.355Y-125.334
X57.395Y-120.396
X57.395Y-121.396
X57.395Y-122.396
X57.395Y-123.396
X57.395Y-124.396
X58.355Y-125.334
X58.395Y-120.396
X58.395Y-121.396
X58.395Y-122.396
X58.395Y-123.396
X58.395Y-124.396
X59.355Y-125.334
X59.395Y-120.396
X59.395Y-121.396
X59.395Y-122.396
X59.395Y-123.396
X59.395Y-124.396
X60.355Y-125.334
X60.395Y-120.396
X60.395Y-121.396
X60.395Y-122.396
X60.395Y-123.396
X60.395Y-124.396
X63.815Y-70.754
X63.824Y-71.745
X63.824Y-72.745
X63.824Y-73.745
X64.8Y-69.733
X64.824Y-70.745
X64.824Y-71.745
X64.824Y-72.745
X64.824Y-73.745
X65.809Y-67.763
X65.824Y-68.745
X65.824Y-69.745
X65.824Y-70.745
X65.824Y-71.745
X65.824Y-72.745
X65.824Y-73.745
X66.824Y-66.745
X66.824Y-67.745
X66.824Y-68.745
X66.824Y-69.745
X66.824Y-70.745
X66.824Y-71.745
X66.824Y-72.745
X66.824Y-73.745
X67.824Y-66.745
X67.824Y-67.745
X67.824Y-68.745
X67.824Y-69.745
X67.824Y-70.745
X67.824Y-71.745
X67.824Y-72.745
X67.824Y-73.745
X67.832Y-92.332
X67.891Y-91.423
X68.759Y-92.328
X68.819Y-89.419
X68.819Y-90.419
X68.819Y-91.419
X68.824Y-66.745
X68.824Y-67.745
X68.824Y-68.745
X68.824Y-69.745
X68.824Y-70.745
X68.824Y-71.745
X68.824Y-72.745
X68.824Y-73.745
X69.792Y-92.311
X69.824Y-66.745
X69.824Y-67.745
X69.824Y-68.745
X69.824Y-69.745
X69.824Y-70.745
X69.824Y-71.745
X69.852Y-88.402
X69.852Y-89.402
X69.852Y-90.402
X69.852Y-91.402
X69.916Y-87.396
X70.792Y-92.311
X70.824Y-66.745
X70.824Y-67.745
X70.824Y-68.745
X70.824Y-69.745
X70.824Y-70.745
X70.852Y-87.402
X70.852Y-88.402
X70.852Y-89.402
X70.852Y-90.402
X70.852Y-91.402
X70.858Y-86.484
X71.792Y-92.311
X71.824Y-66.745
X71.824Y-67.745
X71.824Y-68.745
X71.852Y-87.402
X71.852Y-88.402
X71.852Y-89.402
X71.852Y-90.402
X71.852Y-91.402
X71.858Y-86.484
X71.864Y-69.778
X71.864Y-70.778
X72.792Y-92.311
X72.824Y-66.745
X72.824Y-67.745
X72.852Y-87.402
X72.852Y-88.402
X72.852Y-89.402
X72.852Y-90.402
X72.852Y-91.402
X72.858Y-86.484
X72.877Y-68.741
X72.877Y-69.741
X72.877Y-70.741
X73.852Y-87.402
X73.852Y-88.402
X73.852Y-89.402
X73.852Y-90.402
X73.852Y-91.402
X73.858Y-86.484
X74.409Y-109.167
X74.612Y-105.296
X74.612Y-106.296
X74.612Y-107.296
X74.612Y-108.296
X74.852Y-87.402
X74.852Y-88.402
X74.852Y-89.402
X74.852Y-90.402
X74.852Y-91.402
X74.858Y-86.484
X75.409Y-109.167
X75.612Y-105.296
X75.612Y-106.296
X75.612Y-107.296
X75.612Y-108.296
X75.798Y-87.329
X75.798Y-88.329
X75.798Y-89.329
X75.798Y-90.329
X75.798Y-91.329
X75.804Y-86.411
X76.409Y-109.167
X76.612Y-105.296
X76.612Y-106.296
X76.612Y-107.296
X76.612Y-108.296
X76.773Y-86.359
X76.773Y-87.359
X76.773Y-88.359
X76.773Y-89.359
X76.773Y-90.359
X76.773Y-91.359
X77.414Y-109.178
X77.616Y-105.307
X77.616Y-106.307
X77.616Y-107.307
X77.616Y-108.307
X77.726Y-86.399
X77.726Y-87.399
X77.726Y-88.399
X77.726Y-89.399
X77.744Y-90.432
X77.747Y-91.359
X78.414Y-109.178
X78.616Y-105.307
X78.616Y-106.307
X78.616Y-107.307
X78.616Y-108.307
X79.402Y-109.19
X79.605Y-105.319
X79.605Y-106.319
X79.605Y-107.319
X79.605Y-108.319
X80.44Y-109.152
X80.529Y-107.252
X80.607Y-106.395
X80.629Y-105.373
X80.641Y-108.268
X81.421Y-109.197
X81.568Y-106.324
X81.568Y-107.324
X81.568Y-108.324
X81.625Y-105.349
X115.295Y-60.165
X115.573Y-61.166
X115.703Y-62.129
X116.481Y-60.184
X116.613Y-64.14
X116.613Y-65.14
X116.624Y-61.12
X116.624Y-62.12
X116.624Y-63.12
X117.613Y-60.14
X117.613Y-61.14
X117.613Y-62.14
X117.613Y-63.14
X117.613Y-64.14
X117.613Y-65.14
X118.613Y-60.14
X118.613Y-61.14
X118.613Y-62.14
X118.613Y-63.14
X118.613Y-64.14
X118.613Y-65.14
X119.613Y-60.14
X119.613Y-61.14
X119.613Y-62.14
X119.613Y-63.14
X119.613Y-64.14
X119.613Y-65.14
X120.613Y-60.14
X120.613Y-61.14
X120.613Y-62.14
X120.613Y-63.14
X120.613Y-64.14
X120.613Y-65.14
X121.613Y-60.14
X121.613Y-61.14
X121.613Y-62.14
X121.613Y-63.14
X121.613Y-64.14
X121.613Y-65.14
T5
X129.854Y-111.209
X130.179Y-73.012
X130.62Y-90.633
X131.854Y-111.209
X132.179Y-73.012
X132.62Y-90.633
T6
X72.399Y-74.397
X72.552Y-84.517
X72.751Y-121.906
X72.878Y-112.254
X74.299Y-74.397
X74.452Y-84.517
X74.651Y-121.906
X74.778Y-112.254
X75.6Y-93.778
X75.6Y-103.76
X77.5Y-93.778
X77.5Y-103.76
X107.95Y-84.4
X107.95Y-86.3
X108.001Y-79.964
X108.001Y-81.864
X131.942Y-68.146
X132.757Y-64.859
X133.842Y-68.146
X133.933Y-107.123
X134.363Y-103.254
X134.657Y-64.859
X134.672Y-83.307
X135.035Y-86.33
X135.833Y-107.123
X136.263Y-103.254
X136.572Y-83.307
X136.935Y-86.33
X146.868Y-87.63
X147.198Y-69.52
X148.366Y-120.142
X148.768Y-87.63
X149.098Y-69.52
X150.266Y-120.142
X153.746Y-93.853
X153.746Y-95.753
X153.975Y-98.471
X153.975Y-100.371
X157.491Y-76.469
X157.743Y-79.479
X158.445Y-93.756
X158.445Y-95.656
X158.496Y-98.375
X158.496Y-100.275
X158.712Y-110.121
X159.391Y-76.469
X159.643Y-79.479
X160.612Y-110.121
X162.87Y-87.935
X162.946Y-69.088
X163.119Y-93.468
X163.119Y-95.368
X163.22Y-98.116
X163.22Y-100.016
X164.114Y-118.618
X164.77Y-87.935
X164.846Y-69.088
X166.014Y-118.618
X167.028Y-96.641
X168.613Y-104.783
X168.928Y-96.641
X169.779Y-101.041
X170.513Y-104.783
X171.039Y-109.618
X171.337Y-78.938
X171.679Y-101.041
X172.939Y-109.618
X173.237Y-78.938
X178.624Y-74.635
X180.524Y-74.635
X194.661Y-111.989
X194.691Y-98.628
X194.848Y-105.486
X196.561Y-111.989
X196.591Y-98.628
X196.748Y-105.486
T7
X73.864Y-115.623
X73.864Y-118.123
X74.371Y-77.795
X74.371Y-80.295
X76.466Y-115.677
X76.466Y-118.177
X77.108Y-78.068
X77.108Y-80.568
X77.443Y-97.697
X77.443Y-100.197
X78.658Y-122.123
X78.709Y-111.836
X79.179Y-74.292
X79.243Y-84.353
X80.078Y-97.537
X80.078Y-100.037
X81.158Y-122.123
X81.209Y-111.836
X81.679Y-74.292
X81.743Y-84.353
X82.214Y-103.657
X82.265Y-93.65
X84.461Y-120.0
X84.461Y-122.5
X84.714Y-103.657
X84.765Y-93.65
X85.101Y-80.994
X85.101Y-83.494
X88.214Y-100.363
X88.214Y-102.863
X135.814Y-112.293
X135.814Y-119.913
X136.22Y-71.018
X136.22Y-78.638
X136.22Y-91.288
X136.22Y-98.908
X138.191Y-63.805
X138.318Y-67.793
X138.354Y-112.293
X138.354Y-119.913
X138.76Y-71.018
X138.76Y-78.638
X138.76Y-91.288
X138.76Y-98.908
X139.461Y-106.68
X139.568Y-102.362
X140.223Y-82.499
X140.324Y-86.03
X140.691Y-63.805
X140.818Y-67.793
X140.894Y-112.293
X140.894Y-119.913
X141.3Y-71.018
X141.3Y-78.638
X141.3Y-91.288
X141.3Y-98.908
X141.961Y-106.68
X142.068Y-102.362
X142.723Y-82.499
X142.824Y-86.03
X143.434Y-112.293
X143.434Y-119.913
X143.84Y-71.018
X143.84Y-78.638
X143.84Y-91.288
X143.84Y-98.908
X146.42Y-83.058
X146.877Y-64.516
X147.741Y-114.833
X148.92Y-83.058
X149.377Y-64.516
X150.241Y-114.833
X151.455Y-82.169
X151.455Y-84.709
X151.455Y-87.249
X151.455Y-89.789
X151.76Y-64.491
X151.76Y-67.031
X151.76Y-69.571
X151.76Y-72.111
X153.005Y-113.157
X153.005Y-115.697
X153.005Y-118.237
X153.005Y-120.777
X159.075Y-82.169
X159.075Y-84.709
X159.075Y-87.249
X159.075Y-89.789
X159.38Y-64.491
X159.38Y-67.031
X159.38Y-69.571
X159.38Y-72.111
X160.625Y-113.157
X160.625Y-115.697
X160.625Y-118.237
X160.625Y-120.777
X162.397Y-82.22
X162.458Y-64.948
X163.743Y-112.649
X164.897Y-82.22
X164.958Y-64.948
X166.243Y-112.649
X167.64Y-64.516
X167.64Y-67.056
X167.64Y-69.596
X167.64Y-72.136
X167.686Y-81.61
X167.686Y-84.15
X167.686Y-86.69
X167.686Y-89.23
X168.778Y-112.598
X168.778Y-115.138
X168.778Y-117.678
X168.778Y-120.218
X174.264Y-95.783
X174.467Y-98.704
X174.467Y-103.734
X175.26Y-64.516
X175.26Y-67.056
X175.26Y-69.596
X175.26Y-72.136
X175.306Y-81.61
X175.306Y-84.15
X175.306Y-86.69
X175.306Y-89.23
X176.398Y-112.598
X176.398Y-115.138
X176.398Y-117.678
X176.398Y-120.218
X176.764Y-95.783
X176.967Y-98.704
X176.967Y-103.734
X188.64Y-95.174
X188.64Y-102.641
X189.041Y-109.144
X191.14Y-95.174
X191.14Y-102.641
X191.541Y-109.144
T8
X180.492Y-86.411
X180.492Y-88.951
X180.492Y-91.491
X180.492Y-94.031
X180.492Y-96.571
X180.492Y-99.111
X180.492Y-101.651
X180.492Y-104.191
X180.492Y-106.731
X180.492Y-109.271
X180.492Y-111.811
X180.492Y-114.351
X183.032Y-86.411
X183.032Y-88.951
X183.032Y-91.491
X183.032Y-94.031
X183.032Y-96.571
X183.032Y-99.111
X183.032Y-101.651
X183.032Y-104.191
X183.032Y-106.731
X183.032Y-109.271
X183.032Y-111.811
X183.032Y-114.351
X184.861Y-62.941
X184.861Y-81.483
X187.401Y-62.941
X187.401Y-81.483
X195.529Y-62.941
X195.529Y-81.483
X198.069Y-62.941
X198.069Y-81.483
X203.352Y-86.411
X203.352Y-88.951
X203.352Y-91.491
X203.352Y-94.031
X203.352Y-96.571
X203.352Y-99.111
X203.352Y-101.651
X203.352Y-104.191
X203.352Y-106.731
X203.352Y-109.271
X203.352Y-111.811
X203.352Y-114.351
X205.892Y-86.411
X205.892Y-88.951
X205.892Y-91.491
X205.892Y-94.031
X205.892Y-96.571
X205.892Y-99.111
X205.892Y-101.651
X205.892Y-104.191
X205.892Y-106.731
X205.892Y-109.271
X205.892Y-111.811
X205.892Y-114.351
T9
X107.848Y-68.478
X107.848Y-71.018
X107.848Y-73.558
X107.965Y-111.76
X107.965Y-114.3
X107.965Y-116.84
X108.001Y-91.821
X108.001Y-94.361
X108.001Y-96.901
X123.393Y-111.785
X123.393Y-114.325
X123.393Y-116.865
X123.48Y-68.732
X123.48Y-71.272
X123.48Y-73.812
X123.541Y-91.643
X123.541Y-94.183
X123.541Y-96.723
X129.032Y-118.161
X129.464Y-97.511
X129.819Y-78.308
X131.572Y-118.161
X132.004Y-97.511
X132.359Y-78.308
X152.228Y-104.521
X152.228Y-107.061
X157.378Y-104.521
X157.378Y-107.061
X162.662Y-104.572
X162.662Y-107.112
X205.664Y-64.033
X205.664Y-66.573
X205.664Y-69.113
X205.664Y-71.653
T10
X92.22Y-93.447
X92.246Y-68.58
X92.398Y-115.57
X99.72Y-93.447
X99.746Y-68.58
X99.898Y-115.57
T11
X56.337Y-101.451
X56.337Y-106.451
X56.337Y-111.451
X56.538Y-63.921
X56.538Y-68.921
M30
